fd_7_states
version=1
nRows=35
nColumns=17
inDegrees=yes

# SIMM Motion File Header:
name fd_7_states
datacolumns 17
datarows 35
otherdata 1
range 0.030000 0.070462
endheader
time	/jointset/r_shoulder/r_shoulder_elev/value	/jointset/r_shoulder/r_shoulder_elev/speed	/jointset/r_elbow/r_elbow_flex/value	/jointset/r_elbow/r_elbow_flex/speed	/forceset/TRIlong/activation	/forceset/TRIlong/fiber_length	/forceset/TRIlat/activation	/forceset/TRIlat/fiber_length	/forceset/TRImed/activation	/forceset/TRImed/fiber_length	/forceset/BIClong/activation	/forceset/BIClong/fiber_length	/forceset/BICshort/activation	/forceset/BICshort/fiber_length	/forceset/BRA/activation	/forceset/BRA/fiber_length
      0.030000	      0.000000	      0.000000	     21.140481	      4.995103	      0.020000	      0.144740	      0.040574	      0.078388	      0.037597	      0.073464	      0.084367	      0.142428	      0.023841	      0.142199	      0.020000	      0.088257
      0.030061	     -0.000000	     -0.000778	     21.140784	      4.998310	      0.020006	      0.144740	      0.040556	      0.078388	      0.037582	      0.073464	      0.084307	      0.142428	      0.024456	      0.142199	      0.020454	      0.088257
      0.030121	     -0.000000	     -0.001560	     21.141088	      5.001523	      0.020006	      0.144740	      0.040539	      0.078388	      0.037567	      0.073464	      0.084249	      0.142428	      0.025276	      0.142199	      0.020731	      0.088257
      0.030425	     -0.000001	     -0.005765	     21.142609	      5.018370	      0.020006	      0.144741	      0.040452	      0.078389	      0.037493	      0.073465	      0.083955	      0.142429	      0.029212	      0.142195	      0.022067	      0.088255
      0.031943	     -0.000039	     -0.053532	     21.150326	      5.180378	      0.020006	      0.144744	      0.040022	      0.078393	      0.037128	      0.073469	      0.082511	      0.142431	      0.045484	      0.142135	      0.027665	      0.088238
      0.034244	     -0.000386	     -0.286136	     21.162948	      5.898747	      0.020006	      0.144748	      0.039387	      0.078400	      0.036590	      0.073476	      0.080395	      0.142437	      0.062444	      0.141989	      0.033564	      0.088202
      0.036546	     -0.001540	     -0.756220	     21.178025	      7.319896	      0.020006	      0.144753	      0.038774	      0.078409	      0.036069	      0.073484	      0.078363	      0.142443	      0.073540	      0.141837	      0.037395	      0.088169
      0.037871	     -0.002783	     -1.131809	     21.188447	      8.448281	      0.020006	      0.144755	      0.038430	      0.078414	      0.035776	      0.073489	      0.077230	      0.142448	      0.078171	      0.141756	      0.038967	      0.088152
      0.039145	     -0.004491	     -1.558390	     21.200009	      9.726110	      0.020006	      0.144758	      0.038106	      0.078420	      0.035501	      0.073495	      0.076165	      0.142453	      0.081742	      0.141684	      0.040160	      0.088138
      0.039758	     -0.005515	     -1.784419	     21.206177	     10.401989	      0.020006	      0.144760	      0.037952	      0.078423	      0.035370	      0.073497	      0.075661	      0.142455	      0.083207	      0.141651	      0.040643	      0.088132
      0.040024	     -0.006002	     -1.886166	     21.208979	     10.706002	      0.020006	      0.144760	      0.037886	      0.078424	      0.035314	      0.073499	      0.075451	      0.142456	      0.083709	      0.141638	      0.040978	      0.088129
      0.040152	     -0.006246	     -1.936027	     21.210358	     10.854933	      0.020006	      0.144760	      0.037854	      0.078425	      0.035286	      0.073499	      0.075405	      0.142456	      0.083672	      0.141631	      0.042168	      0.088128
      0.040280	     -0.006497	     -1.986457	     21.211757	     11.005528	      0.020006	      0.144761	      0.037822	      0.078425	      0.035259	      0.073500	      0.075366	      0.142457	      0.083623	      0.141625	      0.043465	      0.088127
      0.040919	     -0.007851	     -2.248562	     21.219044	     11.787573	      0.020006	      0.144762	      0.037664	      0.078428	      0.035125	      0.073503	      0.075171	      0.142459	      0.083379	      0.141595	      0.049471	      0.088116
      0.042892	     -0.013177	     -3.188789	     21.244945	     14.583596	      0.020005	      0.144767	      0.037186	      0.078439	      0.034719	      0.073513	      0.074585	      0.142466	      0.082643	      0.141517	      0.063924	      0.088070
      0.044864	     -0.020578	     -4.353981	     21.277001	     18.032462	      0.020005	      0.144773	      0.036722	      0.078451	      0.034324	      0.073525	      0.074017	      0.142471	      0.081930	      0.141457	      0.073982	      0.088021
      0.048269	     -0.039487	     -6.840772	     21.350437	     25.354012	      0.020005	      0.144785	      0.035951	      0.078478	      0.033667	      0.073550	      0.073077	      0.142478	      0.080753	      0.141380	      0.084985	      0.087947
      0.049842	     -0.051262	     -8.142493	     21.393294	     29.169957	      0.020005	      0.144791	      0.035608	      0.078492	      0.033375	      0.073564	      0.072659	      0.142480	      0.080231	      0.141352	      0.088307	      0.087918
      0.050064	     -0.053089	     -8.331661	     21.399826	     29.723627	      0.020005	      0.144792	      0.035560	      0.078494	      0.033334	      0.073567	      0.072682	      0.142480	      0.080223	      0.141348	      0.088642	      0.087914
      0.050285	     -0.054958	     -8.522001	     21.406481	     30.280509	      0.020005	      0.144793	      0.035512	      0.078497	      0.033294	      0.073569	      0.073254	      0.142480	      0.080691	      0.141344	      0.088615	      0.087910
      0.050507	     -0.056870	     -8.713425	     21.413260	     30.840353	      0.020005	      0.144794	      0.035465	      0.078499	      0.033253	      0.073571	      0.073835	      0.142480	      0.081172	      0.141340	      0.088588	      0.087907
      0.051616	     -0.067071	     -9.684212	     21.449033	     33.676819	      0.020005	      0.144800	      0.035229	      0.078511	      0.033053	      0.073583	      0.076434	      0.142478	      0.083330	      0.141320	      0.088451	      0.087891
      0.055659	     -0.113545	    -13.320952	     21.606544	     44.281607	      0.020005	      0.144824	      0.034402	      0.078567	      0.032348	      0.073638	      0.082708	      0.142444	      0.088583	      0.141234	      0.087972	      0.087843
      0.059702	     -0.174754	    -16.945310	     21.806989	     54.837322	      0.020004	      0.144856	      0.033622	      0.078641	      0.031683	      0.073713	      0.085951	      0.142390	      0.091328	      0.141143	      0.087523	      0.087800
      0.060013	     -0.180072	    -17.220050	     21.824185	     55.637083	      0.020004	      0.144858	      0.033564	      0.078648	      0.031633	      0.073719	      0.086164	      0.142386	      0.091493	      0.141135	      0.087486	      0.087796
      0.060199	     -0.183293	    -17.383983	     21.834588	     56.114257	      0.020004	      0.144860	      0.033529	      0.078652	      0.031603	      0.073723	      0.087059	      0.142383	      0.091927	      0.141131	      0.087389	      0.087794
      0.060386	     -0.186545	    -17.547644	     21.845080	     56.590629	      0.020004	      0.144862	      0.033495	      0.078656	      0.031574	      0.073727	      0.088054	      0.142380	      0.092405	      0.141127	      0.087280	      0.087792
      0.061317	     -0.203260	    -18.362360	     21.898867	     58.962404	      0.020004	      0.144871	      0.033323	      0.078677	      0.031427	      0.073748	      0.092584	      0.142362	      0.094591	      0.141103	      0.086741	      0.087781
      0.064415	     -0.264327	    -21.043981	     22.093723	     66.787498	      0.020004	      0.144903	      0.032768	      0.078754	      0.030953	      0.073825	      0.103503	      0.142281	      0.099911	      0.141016	      0.085005	      0.087745
      0.067514	     -0.333649	    -23.692428	     22.312742	     74.561987	      0.020004	      0.144941	      0.032236	      0.078843	      0.030500	      0.073913	      0.110167	      0.142187	      0.103179	      0.140921	      0.083358	      0.087705
      0.068906	     -0.367457	    -24.870960	     22.418974	     78.037964	      0.020004	      0.144960	      0.032005	      0.078886	      0.030302	      0.073956	      0.112265	      0.142144	      0.104208	      0.140878	      0.082646	      0.087686
      0.069672	     -0.386752	    -25.515572	     22.479470	     79.943293	      0.020004	      0.144971	      0.031880	      0.078911	      0.030195	      0.073980	      0.113242	      0.142120	      0.104687	      0.140853	      0.082261	      0.087675
      0.069988	     -0.394851	    -25.780499	     22.504837	     80.727166	      0.020004	      0.144975	      0.031829	      0.078922	      0.030151	      0.073991	      0.113613	      0.142111	      0.104869	      0.140843	      0.082104	      0.087670
      0.070225	     -0.400986	    -25.979077	     22.524045	     81.315028	      0.020004	      0.144979	      0.031790	      0.078930	      0.030119	      0.073999	      0.114931	      0.142103	      0.104985	      0.140836	      0.082000	      0.087666
      0.070462	     -0.407169	    -26.177388	     22.543393	     81.902378	      0.020004	      0.144982	      0.031752	      0.078938	      0.030086	      0.074007	      0.116405	      0.142095	      0.105095	      0.140828	      0.081900	      0.087663
